<?xml version="1.0" encoding="iso-8859-1"?>
<!-- Generator: Adobe Illustrator 16.0.0, SVG Export Plug-In . SVG Version: 6.00 Build 0)  -->
<!DOCTYPE svg PUBLIC "-//W3C//DTD SVG 1.1//EN" "http://www.w3.org/Graphics/SVG/1.1/DTD/svg11.dtd">
<svg version="1.1" xmlns="http://www.w3.org/2000/svg" xmlns:xlink="http://www.w3.org/1999/xlink" x="0px" y="0px" width="512px"
	 height="512px" viewBox="0 0 512 512" style="enable-background:new 0 0 512 512;" xml:space="preserve">
<g id="Layer_303">
	<g>
		<rect style="fill:#C9FEFF;" width="512" height="512"/>
		<g>
			<g>
				<path style="fill:#4D5152;" d="M78.33,402.447h7.488V436H78.33l-15.983-21.023V436h-7.488v-33.553h7.008l16.464,21.602V402.447z
					"/>
				<path style="fill:#4D5152;" d="M102.473,427.336c1.248,1.553,2.928,2.328,5.04,2.328s3.784-0.775,5.017-2.328
					c1.231-1.551,1.848-3.672,1.848-6.359v-18.529h7.488v18.77c0,4.863-1.345,8.6-4.032,11.207
					c-2.688,2.609-6.128,3.912-10.32,3.912s-7.64-1.313-10.344-3.936c-2.705-2.623-4.056-6.352-4.056-11.184v-18.77h7.487v18.529
					C100.601,423.664,101.225,425.785,102.473,427.336z"/>
				<path style="fill:#4D5152;" d="M144.569,429.377c3.68,0,6.688-1.457,9.023-4.369l4.801,4.943
					c-3.809,4.289-8.297,6.434-13.464,6.434c-5.169,0-9.425-1.633-12.769-4.896s-5.016-7.385-5.016-12.359
					c0-4.977,1.704-9.129,5.111-12.457c3.408-3.328,7.576-4.992,12.504-4.992c5.504,0,10.112,2.096,13.824,6.289l-4.655,5.279
					c-2.369-2.943-5.313-4.416-8.832-4.416c-2.816,0-5.225,0.92-7.225,2.76s-3,4.32-3,7.439c0,3.121,0.943,5.625,2.832,7.514
					C139.593,428.432,141.881,429.377,144.569,429.377z"/>
				<path style="fill:#4D5152;" d="M163.816,436v-33.553h7.488v26.881h14.304V436H163.816z"/>
				<path style="fill:#4D5152;" d="M214.793,402.447v6.672h-16.704v6.912h15.023v6.385h-15.023v6.961h17.231V436h-24.72v-33.553
					H214.793z"/>
				<path style="fill:#4D5152;" d="M245.416,436l-3.12-7.248h-14.064l-3.12,7.248h-7.968l14.496-33.553h7.248L253.384,436H245.416z
					 M235.288,412.432l-4.225,9.744h8.4L235.288,412.432z"/>
				<path style="fill:#4D5152;" d="M284.008,413.584c0,5.377-2.128,8.848-6.384,10.416l8.496,12h-9.216l-7.44-10.703h-5.184V436
					h-7.488v-33.553h12.72c5.216,0,8.936,0.881,11.16,2.641C282.896,406.848,284.008,409.68,284.008,413.584z M274.984,417.568
					c0.928-0.832,1.392-2.152,1.392-3.961c0-1.807-0.479-3.047-1.439-3.719c-0.961-0.672-2.641-1.008-5.04-1.008h-5.616v9.936h5.472
					C272.312,418.816,274.056,418.4,274.984,417.568z"/>
				<path style="fill:#4D5152;" d="M326.512,405.447c2.352,2.002,3.527,5.072,3.527,9.217s-1.208,7.176-3.624,9.096
					s-6.104,2.881-11.063,2.881h-4.464V436h-7.488v-33.553h11.856C320.407,402.447,324.159,403.449,326.512,405.447z
					 M321.016,418.648c0.896-1.008,1.344-2.48,1.344-4.416s-0.584-3.313-1.752-4.129s-2.984-1.223-5.448-1.223h-4.271v11.279h5.04
					C318.424,420.16,320.119,419.656,321.016,418.648z"/>
				<path style="fill:#4D5152;" d="M335.414,436v-33.553h7.488v26.881h14.304V436H335.414z"/>
				<path style="fill:#4D5152;" d="M386.103,436l-3.12-7.248h-14.064l-3.12,7.248h-7.968l14.496-33.553h7.248L394.07,436H386.103z
					 M375.975,412.432l-4.225,9.744h8.4L375.975,412.432z"/>
				<path style="fill:#4D5152;" d="M420.949,402.447h7.488V436h-7.488l-15.983-21.023V436h-7.488v-33.553h7.008l16.464,21.602
					V402.447z"/>
				<path style="fill:#4D5152;" d="M450.422,408.928V436h-7.488v-27.072h-9.504v-6.48h26.496v6.48H450.422z"/>
			</g>
		</g>
		<g>
			<path style="fill:#FFFFFF;" d="M300,160h40c0,0,0,35.996,0,44c0,12,32,96,32,104s0,12,0,12h-72V160z"/>
			<path style="fill:#FFFFFF;" d="M260,144h40c0,0,0,35.996,0,44c0,20,32,108,32,116s0,16,0,16h-72V144z"/>
			<path style="fill:#FFFFFF;" d="M292,300c0,8,0,20,0,20H140c0,0,0-12,0-20s32-96,32-128c0-8,0-44,0-44h88c0,0,0,35.996,0,44
				C260,204,292,292,292,300z"/>
			<path style="fill:none;stroke:#4D5152;stroke-width:8;stroke-linejoin:round;stroke-miterlimit:10;" d="M292,300c0,8,0,20,0,20
				H140c0,0,0-12,0-20s32-96,32-128c0-8,0-44,0-44h88c0,0,0,35.996,0,44C260,204,292,292,292,300z"/>
			<rect x="304" y="308" style="fill:#67DDE0;" width="24" height="8"/>
			<rect x="344" y="308" style="fill:#67DDE0;" width="24" height="8"/>
			<path style="fill:none;stroke:#4D5152;stroke-width:8;stroke-linejoin:round;stroke-miterlimit:10;" d="M272,144h28
				c0,0,0,35.996,0,44c0,20,32,108,32,116s0,16,0,16"/>
			<path style="fill:none;stroke:#4D5152;stroke-width:8;stroke-linejoin:round;stroke-miterlimit:10;" d="M312,160h28
				c0,0,0,35.996,0,44c0,12,32,96,32,104s0,12,0,12"/>
			
				<line style="fill:none;stroke:#4D5152;stroke-width:8;stroke-linejoin:round;stroke-miterlimit:10;" x1="128" y1="320" x2="384" y2="320"/>
			<rect x="176" y="140" style="fill:#F28C13;" width="80" height="8"/>
			<rect x="144" y="300" style="fill:#67DDE0;" width="144" height="16"/>
			<g>
				<circle style="fill:#F28C13;" cx="216" cy="236" r="32"/>
				<polygon style="fill:#FFFFFF;" points="248,268 240,268 216,236 192,268 184,268 184,236 248,236 				"/>
				<circle style="fill:#FFFFFF;" cx="216" cy="236" r="16"/>
				<polygon style="fill:#FFFFFF;" points="216,236 192,200 240,200 				"/>
				<circle style="fill:#F28C13;" cx="216" cy="236" r="8"/>
			</g>
			<rect x="272" y="156" style="fill:#F28C13;" width="24" height="8"/>
			<rect x="312" y="172" style="fill:#F28C13;" width="24" height="8"/>
			
				<line style="fill:none;stroke:#4D5152;stroke-width:8;stroke-linejoin:round;stroke-miterlimit:10;" x1="212" y1="160" x2="220" y2="160"/>
			
				<line style="fill:none;stroke:#4D5152;stroke-width:8;stroke-linejoin:round;stroke-miterlimit:10;" x1="228" y1="160" x2="236" y2="160"/>
			
				<line style="fill:none;stroke:#4D5152;stroke-width:8;stroke-linejoin:round;stroke-miterlimit:10;" x1="196" y1="160" x2="204" y2="160"/>
		</g>
	</g>
</g>
<g id="Layer_1">
</g>
</svg>
