<?xml version="1.0" encoding="iso-8859-1"?>
<!-- Generator: Adobe Illustrator 16.0.0, SVG Export Plug-In . SVG Version: 6.00 Build 0)  -->
<!DOCTYPE svg PUBLIC "-//W3C//DTD SVG 1.1//EN" "http://www.w3.org/Graphics/SVG/1.1/DTD/svg11.dtd">
<svg version="1.1" xmlns="http://www.w3.org/2000/svg" xmlns:xlink="http://www.w3.org/1999/xlink" x="0px" y="0px" width="512px"
	 height="512px" viewBox="0 0 512 512" style="enable-background:new 0 0 512 512;" xml:space="preserve">
<g id="Layer_318">
	<g>
		<rect style="fill:#C9FEFF;" width="512" height="512"/>
		<g>
			<g>
				<path style="fill:#4D5152;" d="M152.058,409.145c-0.72,0.592-1.08,1.375-1.08,2.352s0.439,1.752,1.32,2.328
					c0.88,0.576,2.912,1.256,6.096,2.039c3.184,0.785,5.656,1.961,7.416,3.529c1.759,1.568,2.64,3.855,2.64,6.863
					s-1.128,5.448-3.384,7.32c-2.256,1.872-5.225,2.808-8.904,2.808c-5.313,0-10.097-1.968-14.352-5.903l4.464-5.473
					c3.616,3.168,6.96,4.752,10.032,4.752c1.375,0,2.456-0.295,3.24-0.888c0.784-0.592,1.176-1.392,1.176-2.399
					c0-1.009-0.417-1.809-1.248-2.4c-0.833-0.592-2.48-1.191-4.944-1.801c-3.905-0.928-6.761-2.135-8.568-3.623
					c-1.808-1.488-2.712-3.824-2.712-7.008c0-3.185,1.144-5.641,3.432-7.369c2.288-1.728,5.144-2.592,8.568-2.592
					c2.24,0,4.48,0.385,6.72,1.152c2.239,0.768,4.191,1.856,5.856,3.264l-3.792,5.473c-2.913-2.209-5.92-3.313-9.024-3.313
					C153.762,408.256,152.778,408.553,152.058,409.145z"/>
				<path style="fill:#4D5152;" d="M183.233,427.336c1.248,1.553,2.928,2.328,5.04,2.328c2.112,0,3.784-0.775,5.016-2.328
					c1.231-1.552,1.848-3.672,1.848-6.359v-18.528h7.488v18.768c0,4.864-1.344,8.601-4.032,11.208
					c-2.688,2.609-6.128,3.912-10.32,3.912c-4.192,0-7.64-1.312-10.344-3.936c-2.705-2.624-4.056-6.352-4.056-11.185v-18.768h7.488
					v18.528C181.361,423.664,181.985,425.784,183.233,427.336z"/>
				<path style="fill:#4D5152;" d="M233.033,405.448c2.352,2,3.528,5.071,3.528,9.216s-1.208,7.176-3.624,9.096
					c-2.417,1.92-6.104,2.881-11.064,2.881h-4.464V436h-7.488v-33.552h11.856C226.929,402.448,230.681,403.449,233.033,405.448z
					 M227.537,418.648c0.896-1.008,1.344-2.48,1.344-4.416s-0.584-3.313-1.752-4.129c-1.168-0.815-2.984-1.224-5.448-1.224h-4.272
					v11.28h5.04C224.945,420.16,226.641,419.656,227.537,418.648z"/>
				<path style="fill:#4D5152;" d="M265.049,405.448c2.352,2,3.527,5.071,3.527,9.216s-1.209,7.176-3.624,9.096
					c-2.417,1.92-6.104,2.881-11.064,2.881h-4.464V436h-7.488v-33.552h11.856C258.943,402.448,262.696,403.449,265.049,405.448z
					 M259.553,418.648c0.895-1.008,1.344-2.48,1.344-4.416s-0.584-3.313-1.752-4.129c-1.169-0.815-2.985-1.224-5.448-1.224h-4.272
					v11.28h5.04C256.96,420.16,258.656,419.656,259.553,418.648z"/>
				<path style="fill:#4D5152;" d="M302.176,431.368c-3.393,3.312-7.568,4.968-12.528,4.968c-4.961,0-9.137-1.656-12.528-4.968
					c-3.393-3.312-5.088-7.433-5.088-12.36s1.695-9.048,5.088-12.359c3.392-3.313,7.567-4.969,12.528-4.969
					c4.96,0,9.136,1.656,12.528,4.969c3.391,3.312,5.088,7.432,5.088,12.359S305.566,428.057,302.176,431.368z M299.631,419.032
					c0-2.992-0.959-5.544-2.879-7.656c-1.921-2.112-4.281-3.168-7.08-3.168c-2.801,0-5.16,1.056-7.08,3.168
					s-2.881,4.664-2.881,7.656s0.961,5.536,2.881,7.632s4.279,3.145,7.08,3.145c2.799,0,5.159-1.049,7.08-3.145
					C298.672,424.568,299.631,422.024,299.631,419.032z"/>
				<path style="fill:#4D5152;" d="M340.334,413.584c0,5.376-2.127,8.849-6.383,10.416l8.496,12h-9.217l-7.439-10.704h-5.184V436
					h-7.488v-33.552h12.72c5.216,0,8.935,0.88,11.159,2.64S340.334,409.68,340.334,413.584z M331.311,417.568
					c0.928-0.832,1.393-2.152,1.393-3.961c0-1.807-0.48-3.047-1.439-3.719c-0.961-0.673-2.641-1.009-5.041-1.009h-5.615v9.937h5.471
					C328.639,418.816,330.383,418.4,331.311,417.568z"/>
				<path style="fill:#4D5152;" d="M361.07,408.928V436h-7.488v-27.072h-9.504v-6.479h26.496v6.479H361.07z"/>
			</g>
		</g>
		<g>
			<g>
				<path style="fill:#67DDE0;" d="M256,132c33.586,0,61.953,21.785,72,52h16.816c-10.559-39.168-46.313-68-88.816-68
					s-78.258,28.832-88.816,68H184C194.051,153.785,222.414,132,256,132z"/>
				<path style="fill:#FFFFFF;" d="M340,244c15.465,0,28,12.535,28,28s-12.535,28-28,28"/>
				<path style="fill:#FFB957;" d="M340,300c0,4.418-3.582,8-8,8h-16c-4.418,0-8-3.582-8-8v-56c0-4.418,3.582-8,8-8h16
					c4.418,0,8,3.582,8,8V300z"/>
				<path style="fill:#FFFFFF;" d="M172,244c-15.465,0-28,12.535-28,28s12.535,28,28,28"/>
				<path style="fill:#FFB957;" d="M172,300c0,4.418,3.582,8,8,8h16c4.418,0,8-3.582,8-8v-56c0-4.418-3.582-8-8-8h-16
					c-4.418,0-8,3.582-8,8V300z"/>
				<path style="fill:none;stroke:#4D5152;stroke-width:8;stroke-linejoin:round;stroke-miterlimit:10;" d="M348,208
					c9.559,5.535,16,16.16,16,28c0,5.83-1.277,11.291-4,16"/>
				<path style="fill:none;stroke:#4D5152;stroke-width:8;stroke-linejoin:round;stroke-miterlimit:10;" d="M164,208
					c0-50.811,41.188-92,92-92s92,41.189,92,92"/>
				<path style="fill:none;stroke:#4D5152;stroke-width:8;stroke-linejoin:round;stroke-miterlimit:10;" d="M184,184
					c10.051-30.215,38.414-52,72-52s61.953,21.785,72,52"/>
				<circle style="fill:#EFEFEF;" cx="348" cy="208" r="12"/>
				
					<circle style="fill:none;stroke:#4D5152;stroke-width:8;stroke-linejoin:round;stroke-miterlimit:10;" cx="348" cy="208" r="12"/>
				<path style="fill:none;stroke:#4D5152;stroke-width:8;stroke-linejoin:round;stroke-miterlimit:10;" d="M340,244
					c15.465,0,28,12.535,28,28s-12.535,28-28,28"/>
				<path style="fill:none;stroke:#4D5152;stroke-width:8;stroke-linejoin:round;stroke-miterlimit:10;" d="M340,300
					c0,4.418-3.582,8-8,8h-16c-4.418,0-8-3.582-8-8v-56c0-4.418,3.582-8,8-8h16c4.418,0,8,3.582,8,8V300z"/>
				<path style="fill:none;stroke:#4D5152;stroke-width:8;stroke-linejoin:round;stroke-miterlimit:10;" d="M164,208
					c-9.559,5.535-16,16.16-16,28c0,5.83,1.277,11.291,4,16"/>
				<circle style="fill:#EFEFEF;" cx="164" cy="208" r="12"/>
				
					<circle style="fill:none;stroke:#4D5152;stroke-width:8;stroke-linejoin:round;stroke-miterlimit:10;" cx="164" cy="208" r="12"/>
				<path style="fill:none;stroke:#4D5152;stroke-width:8;stroke-linejoin:round;stroke-miterlimit:10;" d="M172,244
					c-15.465,0-28,12.535-28,28s12.535,28,28,28"/>
				<path style="fill:none;stroke:#4D5152;stroke-width:8;stroke-linejoin:round;stroke-miterlimit:10;" d="M172,300
					c0,4.418,3.582,8,8,8h16c4.418,0,8-3.582,8-8v-56c0-4.418-3.582-8-8-8h-16c-4.418,0-8,3.582-8,8V300z"/>
				
					<line style="fill:none;stroke:#4D5152;stroke-width:8;stroke-linejoin:round;stroke-miterlimit:10;" x1="252" y1="272" x2="260" y2="272"/>
				
					<line style="fill:none;stroke:#4D5152;stroke-width:8;stroke-linejoin:round;stroke-miterlimit:10;" x1="236" y1="272" x2="244" y2="272"/>
				
					<line style="fill:none;stroke:#4D5152;stroke-width:8;stroke-linejoin:round;stroke-miterlimit:10;" x1="268" y1="272" x2="276" y2="272"/>
				
					<line style="fill:none;stroke:#4D5152;stroke-width:8;stroke-linejoin:round;stroke-miterlimit:10;" x1="328" y1="332" x2="264" y2="332"/>
				
					<line style="fill:none;stroke:#4D5152;stroke-width:8;stroke-linejoin:round;stroke-miterlimit:10;" x1="340" y1="300" x2="340" y2="320"/>
				<path style="fill:#FFFFFF;" d="M272,324c0,4.418-3.582,8-8,8h-16c-4.418,0-8-3.582-8-8v-4c0-4.418,3.582-8,8-8h16
					c4.418,0,8,3.582,8,8V324z"/>
				<path style="fill:none;stroke:#4D5152;stroke-width:8;stroke-linejoin:round;stroke-miterlimit:10;" d="M272,324
					c0,4.418-3.582,8-8,8h-16c-4.418,0-8-3.582-8-8v-4c0-4.418,3.582-8,8-8h16c4.418,0,8,3.582,8,8V324z"/>
				<path style="fill:none;stroke:#4D5152;stroke-width:8;stroke-linejoin:round;stroke-miterlimit:10;" d="M340,320
					c0,6.627-5.375,12-12,12"/>
			</g>
		</g>
	</g>
</g>
<g id="Layer_1">
</g>
</svg>
