<?xml version="1.0" encoding="iso-8859-1"?>
<!-- Generator: Adobe Illustrator 16.0.0, SVG Export Plug-In . SVG Version: 6.00 Build 0)  -->
<!DOCTYPE svg PUBLIC "-//W3C//DTD SVG 1.1//EN" "http://www.w3.org/Graphics/SVG/1.1/DTD/svg11.dtd">
<svg version="1.1" xmlns="http://www.w3.org/2000/svg" xmlns:xlink="http://www.w3.org/1999/xlink" x="0px" y="0px" width="512px"
	 height="512px" viewBox="0 0 512 512" style="enable-background:new 0 0 512 512;" xml:space="preserve">
<g id="Layer_48">
	<g>
		<rect style="fill:#FFFFFF;" width="512" height="512"/>
		<g>
			<path style="fill:#4D5152;" d="M203.993,408.928V436h-7.488v-27.072h-9.504v-6.479h26.496v6.479H203.993z"/>
			<path style="fill:#4D5152;" d="M242.681,402.448v6.672h-16.704v6.912H241v6.384h-15.023v6.96h17.231V436h-24.72v-33.552H242.681z
				"/>
			<path style="fill:#4D5152;" d="M273.305,436l-3.12-7.248H256.12L253,436h-7.968l14.496-33.552h7.248L281.272,436H273.305z
				 M263.177,412.432l-4.225,9.744h8.4L263.177,412.432z"/>
			<path style="fill:#4D5152;" d="M314.728,414.88l-9.072,18.336h-4.464l-9.023-18.336V436h-7.488v-33.552h10.128l8.641,18.432
				l8.688-18.432h10.08V436h-7.488V414.88z"/>
		</g>
		<g>
			<circle style="fill:#67DDE0;" cx="256" cy="236" r="120"/>
			<g>
				<path style="fill:#FFFFFF;" d="M268,148l28,16c0,0,0,1.375,0,8c0,6.629-4,12-8,12h-64c-4,0-8-5.371-8-12c0-6.625,0-8,0-8l28-16"
					/>
				<path style="fill:#FFB957;" d="M276,126c0,14-7.852,26-20,26s-20-12-20-26s4-22,20-22S276,112,276,126z"/>
				<path style="fill:none;stroke:#4D5152;stroke-width:8;stroke-miterlimit:10;" d="M276,126c0,14-7.852,26-20,26s-20-12-20-26
					s4-22,20-22S276,112,276,126z"/>
				<path style="fill:none;stroke:#4D5152;stroke-width:8;stroke-miterlimit:10;" d="M268,148l28,16c0,0,0,1.375,0,8
					c0,6.629-4,12-8,12h-64c-4,0-8-5.371-8-12c0-6.625,0-8,0-8l28-16"/>
			</g>
			<g>
				<path style="fill:#FFFFFF;" d="M192,284l28,16c0,0,0,1.375,0,8c0,6.629-4,12-8,12h-64c-4,0-8-5.371-8-12c0-6.625,0-8,0-8l28-16"
					/>
				<path style="fill:#FFB957;" d="M200,262c0,14-7.852,26-20,26s-20-12-20-26s4-22,20-22S200,248,200,262z"/>
				<path style="fill:none;stroke:#4D5152;stroke-width:8;stroke-miterlimit:10;" d="M200,262c0,14-7.852,26-20,26s-20-12-20-26
					s4-22,20-22S200,248,200,262z"/>
				<path style="fill:none;stroke:#4D5152;stroke-width:8;stroke-miterlimit:10;" d="M192,284l28,16c0,0,0,1.375,0,8
					c0,6.629-4,12-8,12h-64c-4,0-8-5.371-8-12c0-6.625,0-8,0-8l28-16"/>
			</g>
			<g>
				<path style="fill:#FFFFFF;" d="M344,284l28,16c0,0,0,1.375,0,8c0,6.629-4,12-8,12h-64c-4,0-8-5.371-8-12c0-6.625,0-8,0-8l28-16"
					/>
				<path style="fill:#FFB957;" d="M352,262c0,14-7.852,26-20,26s-20-12-20-26s4-22,20-22S352,248,352,262z"/>
				<path style="fill:none;stroke:#4D5152;stroke-width:8;stroke-miterlimit:10;" d="M352,262c0,14-7.852,26-20,26s-20-12-20-26
					s4-22,20-22S352,248,352,262z"/>
				<path style="fill:none;stroke:#4D5152;stroke-width:8;stroke-miterlimit:10;" d="M344,284l28,16c0,0,0,1.375,0,8
					c0,6.629-4,12-8,12h-64c-4,0-8-5.371-8-12c0-6.625,0-8,0-8l28-16"/>
			</g>
			<line style="fill:none;stroke:#4D5152;stroke-width:8;stroke-miterlimit:10;" x1="256" y1="204" x2="256" y2="236"/>
			<line style="fill:none;stroke:#4D5152;stroke-width:8;stroke-miterlimit:10;" x1="256" y1="236" x2="224" y2="260"/>
			<line style="fill:none;stroke:#4D5152;stroke-width:8;stroke-miterlimit:10;" x1="256" y1="236" x2="288" y2="260"/>
		</g>
	</g>
</g>
<g id="Layer_1">
</g>
</svg>
