<?xml version="1.0" encoding="iso-8859-1"?>
<!-- Generator: Adobe Illustrator 16.0.0, SVG Export Plug-In . SVG Version: 6.00 Build 0)  -->
<!DOCTYPE svg PUBLIC "-//W3C//DTD SVG 1.1//EN" "http://www.w3.org/Graphics/SVG/1.1/DTD/svg11.dtd">
<svg version="1.1" xmlns="http://www.w3.org/2000/svg" xmlns:xlink="http://www.w3.org/1999/xlink" x="0px" y="0px" width="512px"
	 height="512px" viewBox="0 0 512 512" style="enable-background:new 0 0 512 512;" xml:space="preserve">
<g id="Layer_354">
	<g>
		<rect style="fill:#FFFFFF;" width="512" height="512"/>
		<g>
			<g>
				<path style="fill:#4D5152;" d="M154.851,402.447v6.576h-15.552v7.248h14.784v6.576h-14.784V436h-7.488v-33.553H154.851z"/>
				<path style="fill:#4D5152;" d="M184.898,402.447v6.672h-16.704v6.912h15.024v6.385h-15.024v6.961h17.232V436h-24.72v-33.553
					H184.898z"/>
				<path style="fill:#4D5152;" d="M215.522,436l-3.12-7.248h-14.064l-3.12,7.248h-7.968l14.496-33.553h7.248L223.49,436H215.522z
					 M205.394,412.432l-4.224,9.744h8.4L205.394,412.432z"/>
				<path style="fill:#4D5152;" d="M238.658,408.928V436h-7.488v-27.072h-9.504v-6.48h26.496v6.48H238.658z"/>
				<path style="fill:#4D5152;" d="M262.033,427.336c1.248,1.553,2.929,2.328,5.041,2.328c2.111,0,3.783-0.775,5.016-2.328
					c1.231-1.551,1.848-3.672,1.848-6.359v-18.529h7.488v18.77c0,4.863-1.344,8.6-4.031,11.207
					c-2.688,2.609-6.129,3.912-10.32,3.912c-4.193,0-7.641-1.313-10.344-3.936c-2.705-2.623-4.056-6.352-4.056-11.184v-18.77h7.488
					v18.529C260.162,423.664,260.785,425.785,262.033,427.336z"/>
				<path style="fill:#4D5152;" d="M315.938,413.584c0,5.377-2.129,8.848-6.384,10.416l8.496,12h-9.216l-7.44-10.703h-5.184V436
					h-7.488v-33.553h12.72c5.216,0,8.936,0.881,11.16,2.641S315.938,409.68,315.938,413.584z M306.914,417.568
					c0.928-0.832,1.392-2.152,1.392-3.961c0-1.807-0.479-3.047-1.44-3.719c-0.959-0.672-2.64-1.008-5.039-1.008h-5.616v9.936h5.472
					C304.242,418.816,305.985,418.4,306.914,417.568z"/>
				<path style="fill:#4D5152;" d="M347.33,402.447v6.672h-16.705v6.912h15.023v6.385h-15.023v6.961h17.232V436h-24.721v-33.553
					H347.33z"/>
				<path style="fill:#4D5152;" d="M361.896,409.145c-0.72,0.592-1.079,1.375-1.079,2.352s0.439,1.752,1.319,2.328
					s2.912,1.256,6.096,2.039c3.185,0.785,5.656,1.961,7.416,3.529s2.641,3.855,2.641,6.863s-1.128,5.447-3.384,7.32
					c-2.257,1.871-5.225,2.809-8.904,2.809c-5.313,0-10.097-1.969-14.353-5.904l4.465-5.473c3.615,3.168,6.96,4.752,10.031,4.752
					c1.376,0,2.456-0.295,3.24-0.889c0.784-0.592,1.176-1.391,1.176-2.398s-0.416-1.809-1.248-2.4s-2.479-1.191-4.943-1.801
					c-3.904-0.928-6.761-2.135-8.568-3.623c-1.809-1.488-2.712-3.824-2.712-7.008s1.144-5.641,3.432-7.369
					c2.288-1.727,5.144-2.592,8.568-2.592c2.239,0,4.479,0.385,6.72,1.152s4.192,1.855,5.856,3.264l-3.792,5.473
					c-2.912-2.209-5.921-3.313-9.024-3.313C363.601,408.256,362.617,408.553,361.896,409.145z"/>
			</g>
		</g>
		<g>
			<circle style="fill:#FFFFFF;" cx="256" cy="232" r="96"/>
			<circle style="fill:none;stroke:#4D5152;stroke-width:8;stroke-miterlimit:10;" cx="256" cy="232" r="96"/>
			<polygon style="fill:#F28C13;" points="256,108 284,196 376,196 304,252 332,340 256,284 180,340 208,252 136,196 228,196 			"/>
			<polygon style="fill:#FFB957;" points="256,160 276,212 328,212 288,244 300,292 256,264 212,292 224,244 184,212 236,212 			"/>
			<polygon style="fill:#FFFFFF;" points="256,202.414 264,224 284,224 268,236 272,256 256,244 240,256 244,236 228,224 248,224 
							"/>
			<line style="fill:none;stroke:#4D5152;stroke-width:8;stroke-miterlimit:10;" x1="292" y1="184" x2="300" y2="184"/>
			<line style="fill:none;stroke:#4D5152;stroke-width:8;stroke-miterlimit:10;" x1="212" y1="184" x2="220" y2="184"/>
			<line style="fill:none;stroke:#4D5152;stroke-width:8;stroke-miterlimit:10;" x1="188" y1="260" x2="196" y2="260"/>
			<line style="fill:none;stroke:#4D5152;stroke-width:8;stroke-miterlimit:10;" x1="316" y1="260" x2="324" y2="260"/>
			<line style="fill:none;stroke:#4D5152;stroke-width:8;stroke-miterlimit:10;" x1="252" y1="300" x2="260" y2="300"/>
		</g>
	</g>
</g>
<g id="Layer_1">
</g>
</svg>
