<?xml version="1.0" encoding="iso-8859-1"?>
<!-- Generator: Adobe Illustrator 16.0.0, SVG Export Plug-In . SVG Version: 6.00 Build 0)  -->
<!DOCTYPE svg PUBLIC "-//W3C//DTD SVG 1.1//EN" "http://www.w3.org/Graphics/SVG/1.1/DTD/svg11.dtd">
<svg version="1.1" xmlns="http://www.w3.org/2000/svg" xmlns:xlink="http://www.w3.org/1999/xlink" x="0px" y="0px" width="512px"
	 height="512px" viewBox="0 0 512 512" style="enable-background:new 0 0 512 512;" xml:space="preserve">
<g id="Layer_104">
	<g>
		<rect style="fill:#FFB957;" width="512" height="512"/>
		<g>
			<g>
				<path style="fill:#4D5152;" d="M147.073,408.928V436h-7.488v-27.072h-9.504v-6.479h26.496v6.479H147.073z"/>
				<path style="fill:#4D5152;" d="M182.4,402.448h7.488V436H182.4v-13.2h-13.344V436h-7.488v-33.552h7.488v14.016H182.4V402.448z"
					/>
				<path style="fill:#4D5152;" d="M206.544,427.336c1.248,1.553,2.928,2.328,5.04,2.328s3.784-0.775,5.017-2.328
					c1.231-1.552,1.848-3.672,1.848-6.36v-18.527h7.488v18.768c0,4.864-1.345,8.601-4.032,11.208
					c-2.688,2.608-6.128,3.912-10.32,3.912s-7.64-1.312-10.344-3.936c-2.705-2.624-4.056-6.353-4.056-11.185v-18.768h7.487v18.527
					C204.672,423.664,205.296,425.784,206.544,427.336z"/>
				<path style="fill:#4D5152;" d="M263.279,414.88l-9.072,18.336h-4.464l-9.023-18.336V436h-7.488v-33.552h10.128L252,420.88
					l8.688-18.432h10.08V436h-7.488V414.88z"/>
				<path style="fill:#4D5152;" d="M293.232,436h-14.688v-33.552H291.6c2.272,0,4.231,0.272,5.881,0.815
					c1.647,0.545,2.887,1.28,3.72,2.208c1.504,1.729,2.256,3.681,2.256,5.856c0,2.624-0.849,4.576-2.544,5.855
					c-0.576,0.449-0.977,0.729-1.2,0.841c-0.225,0.112-0.624,0.296-1.2,0.552c2.08,0.448,3.736,1.385,4.969,2.808
					c1.231,1.425,1.848,3.192,1.848,5.305c0,2.336-0.801,4.399-2.4,6.191C301.071,434.961,297.84,436,293.232,436z M286.032,416.032
					h3.552c2.08,0,3.624-0.224,4.632-0.672s1.512-1.416,1.512-2.904s-0.464-2.472-1.392-2.952c-0.929-0.479-2.496-0.72-4.704-0.72
					h-3.6V416.032z M286.032,429.664h5.136c2.144,0,3.752-0.264,4.824-0.792c1.071-0.528,1.607-1.567,1.607-3.12
					c0-1.552-0.568-2.575-1.703-3.072c-1.137-0.495-2.952-0.744-5.448-0.744h-4.416V429.664z"/>
				<path style="fill:#4D5152;" d="M332.207,427.336c1.248,1.553,2.928,2.328,5.04,2.328s3.784-0.775,5.017-2.328
					c1.231-1.552,1.848-3.672,1.848-6.36v-18.527h7.488v18.768c0,4.864-1.345,8.601-4.032,11.208
					c-2.688,2.608-6.128,3.912-10.32,3.912s-7.64-1.312-10.344-3.936c-2.705-2.624-4.056-6.353-4.056-11.185v-18.768h7.487v18.527
					C330.335,423.664,330.959,425.784,332.207,427.336z"/>
				<path style="fill:#4D5152;" d="M382.007,405.448c2.352,2,3.527,5.072,3.527,9.216c0,4.145-1.208,7.176-3.624,9.096
					s-6.104,2.88-11.063,2.88h-4.464V436h-7.488v-33.552h11.856C375.902,402.448,379.654,403.448,382.007,405.448z M376.511,418.648
					c0.896-1.009,1.344-2.479,1.344-4.416s-0.584-3.313-1.752-4.129c-1.168-0.815-2.984-1.224-5.448-1.224h-4.271v11.28h5.04
					C373.919,420.16,375.614,419.656,376.511,418.648z"/>
			</g>
		</g>
		<g>
			<path style="fill:#FFFFFF;" d="M208,212l20-12l36-36l16-32c0-6.625,5.371-12,12-12s12,5.375,12,12v20l-16,48h68
				c8.836,0,16,7.164,16,16s-7.164,16-16,16h-8c8.836,0,16,7.164,16,16s-7.164,16-16,16h-8c8.836,0,16,7.164,16,16s-7.164,16-16,16
				h-8c8.836,0,16,7.164,16,16s-7.164,16-16,16h-88l-16-8h-20"/>
			<rect x="140" y="200" style="fill:#ACF0F2;" width="68" height="128"/>
			<rect x="140" y="200" style="fill:#67DDE0;" width="20" height="128"/>
			<polyline style="fill:none;stroke:#4D5152;stroke-width:8;stroke-miterlimit:10;" points="140,200 208,200 208,328 140,328 			
				"/>
			<path style="fill:none;stroke:#4D5152;stroke-width:8;stroke-miterlimit:10;" d="M236,208"/>
			<line style="fill:none;stroke:#4D5152;stroke-width:8;stroke-miterlimit:10;" x1="184" y1="316" x2="184" y2="308"/>
			<line style="fill:none;stroke:#4D5152;stroke-width:8;stroke-miterlimit:10;" x1="184" y1="300" x2="184" y2="292"/>
			<line style="fill:none;stroke:#4D5152;stroke-width:8;stroke-miterlimit:10;" x1="348" y1="232" x2="324" y2="232"/>
			<line style="fill:none;stroke:#4D5152;stroke-width:8;stroke-miterlimit:10;" x1="340" y1="264" x2="316" y2="264"/>
			<line style="fill:none;stroke:#4D5152;stroke-width:8;stroke-miterlimit:10;" x1="332" y1="296" x2="308" y2="296"/>
			<line style="fill:none;stroke:#4D5152;stroke-width:8;stroke-miterlimit:10;" x1="348" y1="232" x2="324" y2="232"/>
			<line style="fill:none;stroke:#4D5152;stroke-width:8;stroke-miterlimit:10;" x1="340" y1="264" x2="316" y2="264"/>
			<line style="fill:none;stroke:#4D5152;stroke-width:8;stroke-miterlimit:10;" x1="332" y1="296" x2="308" y2="296"/>
			<path style="fill:none;stroke:#4D5152;stroke-width:8;stroke-miterlimit:10;" d="M208,212l20-12l36-36l16-32
				c0-6.625,5.371-12,12-12s12,5.375,12,12v20l-16,48h68c8.836,0,16,7.164,16,16s-7.164,16-16,16h-8c8.836,0,16,7.164,16,16
				s-7.164,16-16,16h-8c8.836,0,16,7.164,16,16s-7.164,16-16,16h-8c8.836,0,16,7.164,16,16s-7.164,16-16,16h-88l-16-8h-20"/>
		</g>
	</g>
</g>
<g id="Layer_1">
</g>
</svg>
