<?xml version="1.0" encoding="iso-8859-1"?>
<!-- Generator: Adobe Illustrator 16.0.0, SVG Export Plug-In . SVG Version: 6.00 Build 0)  -->
<!DOCTYPE svg PUBLIC "-//W3C//DTD SVG 1.1//EN" "http://www.w3.org/Graphics/SVG/1.1/DTD/svg11.dtd">
<svg version="1.1" xmlns="http://www.w3.org/2000/svg" xmlns:xlink="http://www.w3.org/1999/xlink" x="0px" y="0px" width="512px"
	 height="512px" viewBox="0 0 512 512" style="enable-background:new 0 0 512 512;" xml:space="preserve">
<g id="Layer_107">
	<g>
		<rect style="fill:#FFFFFF;" width="512" height="512"/>
		<g>
			<path style="fill:#4D5152;" d="M141.065,414.88l-9.072,18.336h-4.464l-9.023-18.336V436h-7.488v-33.552h10.128l8.641,18.432
				l8.688-18.432h10.08V436h-7.488V414.88z"/>
			<path style="fill:#4D5152;" d="M180.233,436l-3.12-7.248h-14.064l-3.12,7.248h-7.968l14.496-33.552h7.248L188.201,436H180.233z
				 M170.105,412.432l-4.225,9.744h8.4L170.105,412.432z"/>
			<path style="fill:#4D5152;" d="M218.825,413.584c0,5.376-2.128,8.849-6.384,10.416l8.496,12h-9.216l-7.44-10.704h-5.184V436
				h-7.488v-33.552h12.72c5.216,0,8.936,0.88,11.16,2.64C217.713,406.849,218.825,409.681,218.825,413.584z M209.802,417.568
				c0.928-0.832,1.392-2.152,1.392-3.96s-0.479-3.049-1.439-3.721c-0.961-0.672-2.641-1.008-5.04-1.008h-5.616v9.937h5.472
				C207.129,418.816,208.873,418.4,209.802,417.568z"/>
			<path style="fill:#4D5152;" d="M226.024,402.448h7.488v13.775l12.672-13.775h9.264l-13.344,14.832
				c1.152,1.601,3.279,4.584,6.384,8.952c3.104,4.367,5.424,7.624,6.96,9.768h-8.735l-9.841-13.248l-3.359,3.744V436h-7.488V402.448
				z"/>
			<path style="fill:#4D5152;" d="M283.816,402.448v6.672h-16.704v6.912h15.023v6.384h-15.023v6.96h17.231V436h-24.72v-33.552
				H283.816z"/>
			<path style="fill:#4D5152;" d="M304.744,408.928V436h-7.488v-27.072h-9.504v-6.479h26.496v6.479H304.744z"/>
			<path style="fill:#4D5152;" d="M319.239,402.448h7.488V436h-7.488V402.448z"/>
			<path style="fill:#4D5152;" d="M357.975,402.448h7.488V436h-7.488l-15.983-21.024V436h-7.488v-33.552h7.008l16.464,21.6V402.448z
				"/>
			<path style="fill:#4D5152;" d="M395.03,418.912h7.536v11.904c-3.328,3.712-7.937,5.567-13.824,5.567
				c-4.928,0-9.064-1.632-12.408-4.896c-3.344-3.265-5.016-7.384-5.016-12.36c0-4.976,1.704-9.127,5.112-12.456
				c3.407-3.327,7.52-4.992,12.336-4.992c4.815,0,9,1.584,12.552,4.752l-3.888,5.616c-1.505-1.312-2.889-2.216-4.152-2.712
				c-1.265-0.496-2.633-0.744-4.104-0.744c-2.849,0-5.249,0.969-7.2,2.904c-1.952,1.937-2.929,4.488-2.929,7.656
				s0.937,5.704,2.809,7.607c1.872,1.904,4.104,2.856,6.696,2.856c2.592,0,4.752-0.496,6.479-1.488V418.912z"/>
		</g>
		<g>
			<g>
				<polygon style="fill:#F28C13;" points="260,236 364,284 364,200 260,200 				"/>
				<polygon style="fill:#FFB957;" points="260,164 260,200 364,200 364,116 				"/>
			</g>
			<polyline style="fill:#FFFFFF;" points="228,276 244,276 244,292 228,292 			"/>
			<polyline style="fill:#F28C13;" points="184,260 196,340 228,340 228,260 			"/>
			<polyline style="fill:#FFFFFF;" points="172,244 172,260 244,260 244,244 			"/>
			<polyline style="fill:#FFFFFF;" points="156,180 140,180 140,220 156,220 			"/>
			<rect x="156" y="156" style="fill:#67DDE0;" width="104" height="88"/>
			<rect x="172" y="172" style="fill:#FFB957;" width="72" height="16"/>
			<rect x="364" y="116" style="fill:#FFFFFF;" width="16" height="168"/>
			<rect x="156" y="156" style="fill:none;stroke:#4D5152;stroke-width:8;stroke-miterlimit:10;" width="104" height="88"/>
			<polyline style="fill:none;stroke:#4D5152;stroke-width:8;stroke-miterlimit:10;" points="156,180 140,180 140,220 156,220 			
				"/>
			<polyline style="fill:none;stroke:#4D5152;stroke-width:8;stroke-miterlimit:10;" points="172,244 172,260 244,260 244,244 			
				"/>
			<polyline style="fill:none;stroke:#4D5152;stroke-width:8;stroke-miterlimit:10;" points="184,260 196,340 228,340 228,260 			
				"/>
			
				<rect x="364" y="116" style="fill:none;stroke:#4D5152;stroke-width:8;stroke-linejoin:round;stroke-miterlimit:10;" width="16" height="168"/>
			<line style="fill:none;stroke:#4D5152;stroke-width:8;stroke-miterlimit:10;" x1="260" y1="164" x2="364" y2="116"/>
			<line style="fill:none;stroke:#4D5152;stroke-width:8;stroke-miterlimit:10;" x1="260" y1="236" x2="364" y2="284"/>
			<line style="fill:none;stroke:#4D5152;stroke-width:8;stroke-miterlimit:10;" x1="140" y1="200" x2="128" y2="200"/>
			<rect x="172" y="172" style="fill:none;stroke:#4D5152;stroke-width:8;stroke-miterlimit:10;" width="72" height="16"/>
			<line style="fill:none;stroke:#4D5152;stroke-width:8;stroke-miterlimit:10;" x1="188" y1="204" x2="196" y2="204"/>
			<line style="fill:none;stroke:#4D5152;stroke-width:8;stroke-miterlimit:10;" x1="204" y1="204" x2="212" y2="204"/>
			<line style="fill:none;stroke:#4D5152;stroke-width:8;stroke-miterlimit:10;" x1="220" y1="204" x2="228" y2="204"/>
			<polyline style="fill:none;stroke:#4D5152;stroke-width:8;stroke-miterlimit:10;" points="216,276 244,276 244,292 216,292 			
				"/>
			<line style="fill:none;stroke:#4D5152;stroke-width:8;stroke-miterlimit:10;" x1="228" y1="308" x2="216" y2="308"/>
			<line style="fill:none;stroke:#4D5152;stroke-width:8;stroke-miterlimit:10;" x1="228" y1="324" x2="216" y2="324"/>
		</g>
	</g>
</g>
<g id="Layer_1">
</g>
</svg>
