<?xml version="1.0" encoding="iso-8859-1"?>
<!-- Generator: Adobe Illustrator 16.0.0, SVG Export Plug-In . SVG Version: 6.00 Build 0)  -->
<!DOCTYPE svg PUBLIC "-//W3C//DTD SVG 1.1//EN" "http://www.w3.org/Graphics/SVG/1.1/DTD/svg11.dtd">
<svg version="1.1" xmlns="http://www.w3.org/2000/svg" xmlns:xlink="http://www.w3.org/1999/xlink" x="0px" y="0px" width="512px"
	 height="512px" viewBox="0 0 512 512" style="enable-background:new 0 0 512 512;" xml:space="preserve">
<g id="Layer_177">
	<g>
		<rect style="fill:#FFB957;" width="512" height="512"/>
		<g>
			<g>
				<path style="fill:#4D5152;" d="M124.755,405.447c2.352,2.002,3.527,5.072,3.527,9.217s-1.208,7.176-3.624,9.096
					s-6.104,2.881-11.063,2.881h-4.464V436h-7.488v-33.553h11.856C118.65,402.447,122.402,403.449,124.755,405.447z
					 M119.259,418.648c0.896-1.008,1.344-2.48,1.344-4.416s-0.584-3.313-1.752-4.129s-2.984-1.223-5.448-1.223h-4.271v11.279h5.04
					C116.667,420.16,118.362,419.656,119.259,418.648z"/>
				<path style="fill:#4D5152;" d="M160.873,413.584c0,5.377-2.128,8.848-6.384,10.416l8.496,12h-9.216l-7.44-10.703h-5.184V436
					h-7.488v-33.553h12.72c5.216,0,8.936,0.881,11.16,2.641C159.761,406.848,160.873,409.68,160.873,413.584z M151.85,417.568
					c0.928-0.832,1.392-2.152,1.392-3.961c0-1.807-0.479-3.047-1.439-3.719c-0.961-0.672-2.641-1.008-5.04-1.008h-5.616v9.936h5.472
					C149.177,418.816,150.921,418.4,151.85,417.568z"/>
				<path style="fill:#4D5152;" d="M195.962,431.367c-3.392,3.313-7.567,4.969-12.527,4.969c-4.961,0-9.137-1.656-12.528-4.969
					c-3.393-3.311-5.088-7.432-5.088-12.359s1.695-9.047,5.088-12.359c3.392-3.313,7.567-4.969,12.528-4.969
					c4.96,0,9.136,1.656,12.527,4.969s5.089,7.432,5.089,12.359S199.354,428.057,195.962,431.367z M193.418,419.031
					c0-2.99-0.96-5.543-2.88-7.654c-1.92-2.113-4.28-3.17-7.08-3.17s-5.159,1.057-7.08,3.17c-1.92,2.111-2.88,4.664-2.88,7.654
					c0,2.994,0.96,5.537,2.88,7.633c1.921,2.096,4.28,3.145,7.08,3.145s5.16-1.049,7.08-3.145S193.418,422.025,193.418,419.031z"/>
				<path style="fill:#4D5152;" d="M220.201,408.928V436h-7.488v-27.072h-9.504v-6.48h26.496v6.48H220.201z"/>
				<path style="fill:#4D5152;" d="M258.89,402.447v6.672h-16.704v6.912h15.023v6.385h-15.023v6.961h17.231V436h-24.72v-33.553
					H258.89z"/>
				<path style="fill:#4D5152;" d="M281.017,429.377c3.68,0,6.688-1.457,9.023-4.369l4.801,4.943
					c-3.809,4.289-8.297,6.434-13.464,6.434c-5.169,0-9.425-1.633-12.769-4.896s-5.016-7.385-5.016-12.359
					c0-4.977,1.704-9.129,5.111-12.457c3.408-3.328,7.576-4.992,12.504-4.992c5.504,0,10.112,2.096,13.824,6.289l-4.655,5.279
					c-2.369-2.943-5.313-4.416-8.832-4.416c-2.816,0-5.225,0.92-7.225,2.76s-3,4.32-3,7.439c0,3.121,0.943,5.625,2.832,7.514
					C276.04,428.432,278.328,429.377,281.017,429.377z"/>
				<path style="fill:#4D5152;" d="M314.473,408.928V436h-7.488v-27.072h-9.504v-6.48h26.496v6.48H314.473z"/>
				<path style="fill:#4D5152;" d="M328.968,402.447h7.488V436h-7.488V402.447z"/>
				<path style="fill:#4D5152;" d="M372.455,431.367c-3.392,3.313-7.567,4.969-12.527,4.969c-4.961,0-9.137-1.656-12.528-4.969
					c-3.393-3.311-5.088-7.432-5.088-12.359s1.695-9.047,5.088-12.359c3.392-3.313,7.567-4.969,12.528-4.969
					c4.96,0,9.136,1.656,12.527,4.969s5.089,7.432,5.089,12.359S375.847,428.057,372.455,431.367z M369.911,419.031
					c0-2.99-0.96-5.543-2.88-7.654c-1.92-2.113-4.28-3.17-7.08-3.17s-5.159,1.057-7.08,3.17c-1.92,2.111-2.88,4.664-2.88,7.654
					c0,2.994,0.96,5.537,2.88,7.633c1.921,2.096,4.28,3.145,7.08,3.145s5.16-1.049,7.08-3.145S369.911,422.025,369.911,419.031z"/>
				<path style="fill:#4D5152;" d="M406.87,402.447h7.488V436h-7.488l-15.983-21.023V436h-7.488v-33.553h7.008l16.464,21.602
					V402.447z"/>
			</g>
		</g>
		<g>
			<rect x="160" y="320" style="fill:#FFFFFF;" width="192" height="16"/>
			<rect x="168" y="304" style="fill:#FFB957;" width="176" height="16"/>
			<path style="fill:#FFFFFF;" d="M160,304h192v-48c0-53.02-42.98-96-96-96s-96,42.98-96,96V304z"/>
			
				<rect x="160" y="320" style="fill:none;stroke:#4D5152;stroke-width:8;stroke-linejoin:round;stroke-miterlimit:10;" width="192" height="16"/>
			<path style="fill:#ACF0F2;" d="M252,268v-24l40-76c8,0,60,28,60,88v12H252z"/>
			
				<line style="fill:none;stroke:#4D5152;stroke-width:8;stroke-linejoin:round;stroke-miterlimit:10;" x1="256" y1="156" x2="256" y2="128"/>
			<circle style="fill:#FFB957;" cx="256" cy="116" r="12"/>
			
				<circle style="fill:none;stroke:#4D5152;stroke-width:8;stroke-linejoin:round;stroke-miterlimit:10;" cx="256" cy="116" r="12"/>
			
				<line style="fill:none;stroke:#4D5152;stroke-width:8;stroke-linecap:round;stroke-linejoin:round;stroke-miterlimit:10;" x1="292" y1="168" x2="252" y2="244"/>
			
				<line style="fill:none;stroke:#4D5152;stroke-width:8;stroke-linejoin:round;stroke-miterlimit:10;" x1="348" y1="268" x2="256" y2="268"/>
			<circle style="fill:#FFB957;" cx="256" cy="256" r="12"/>
			
				<circle style="fill:none;stroke:#4D5152;stroke-width:8;stroke-linejoin:round;stroke-miterlimit:10;" cx="256" cy="256" r="12"/>
			<path style="fill:none;stroke:#4D5152;stroke-width:8;stroke-linejoin:round;stroke-miterlimit:10;" d="M160,304h192v-48
				c0-53.02-42.98-96-96-96s-96,42.98-96,96V304z"/>
			
				<line style="fill:none;stroke:#4D5152;stroke-width:8;stroke-linejoin:round;stroke-miterlimit:10;" x1="168" y1="308" x2="168" y2="316"/>
			
				<line style="fill:none;stroke:#4D5152;stroke-width:8;stroke-linejoin:round;stroke-miterlimit:10;" x1="344" y1="308" x2="344" y2="316"/>
			
				<line style="fill:none;stroke:#4D5152;stroke-width:8;stroke-linejoin:round;stroke-miterlimit:10;" x1="212" y1="240" x2="212" y2="272"/>
			
				<line style="fill:none;stroke:#4D5152;stroke-width:8;stroke-linejoin:round;stroke-miterlimit:10;" x1="228" y1="240" x2="228" y2="272"/>
			
				<line style="fill:none;stroke:#4D5152;stroke-width:8;stroke-linejoin:round;stroke-miterlimit:10;" x1="196" y1="240" x2="196" y2="272"/>
			<path style="fill:none;stroke:#4D5152;stroke-width:8;stroke-linejoin:round;stroke-miterlimit:10;" d="M296.008,196.129
				C315.297,209.047,328,231.039,328,256"/>
		</g>
	</g>
</g>
<g id="Layer_1">
</g>
</svg>
