<?xml version="1.0" encoding="iso-8859-1"?>
<!-- Generator: Adobe Illustrator 16.0.0, SVG Export Plug-In . SVG Version: 6.00 Build 0)  -->
<!DOCTYPE svg PUBLIC "-//W3C//DTD SVG 1.1//EN" "http://www.w3.org/Graphics/SVG/1.1/DTD/svg11.dtd">
<svg version="1.1" xmlns="http://www.w3.org/2000/svg" xmlns:xlink="http://www.w3.org/1999/xlink" x="0px" y="0px" width="512px"
	 height="512px" viewBox="0 0 512 512" style="enable-background:new 0 0 512 512;" xml:space="preserve">
<g id="Layer_147">
	<g>
		<rect style="fill:#FFFFFF;" width="512" height="512"/>
		<g>
			<g>
				<path style="fill:#4D5152;" d="M206.92,417.546l-9.072,18.336h-4.464l-9.024-18.336v21.12h-7.488v-33.552H187l8.64,18.432
					l8.688-18.432h10.08v33.552h-7.488V417.546z"/>
				<path style="fill:#4D5152;" d="M246.088,438.666l-3.12-7.248h-14.064l-3.12,7.248h-7.968l14.496-33.552h7.248l14.496,33.552
					H246.088z M235.96,415.098l-4.224,9.744h8.4L235.96,415.098z"/>
				<path style="fill:#4D5152;" d="M279.256,421.578h7.536v11.904c-3.329,3.712-7.937,5.567-13.824,5.567
					c-4.929,0-9.064-1.632-12.407-4.896c-3.345-3.265-5.017-7.384-5.017-12.36c0-4.976,1.704-9.127,5.112-12.456
					c3.408-3.327,7.52-4.992,12.336-4.992c4.815,0,9,1.584,12.552,4.752l-3.888,5.616c-1.505-1.312-2.889-2.216-4.152-2.712
					c-1.265-0.496-2.633-0.744-4.104-0.744c-2.85,0-5.249,0.969-7.201,2.904c-1.951,1.937-2.928,4.488-2.928,7.656
					s0.937,5.704,2.809,7.607c1.872,1.904,4.104,2.856,6.695,2.856c2.593,0,4.752-0.496,6.48-1.488V421.578z"/>
				<path style="fill:#4D5152;" d="M292.984,405.114h7.488v33.552h-7.488V405.114z"/>
				<path style="fill:#4D5152;" d="M323.655,432.042c3.679,0,6.688-1.456,9.024-4.368l4.799,4.944
					c-3.809,4.288-8.296,6.432-13.463,6.432c-5.169,0-9.425-1.632-12.769-4.896c-3.345-3.265-5.017-7.384-5.017-12.36
					c0-4.976,1.705-9.127,5.113-12.456c3.407-3.327,7.575-4.992,12.504-4.992c5.503,0,10.111,2.097,13.823,6.288l-4.655,5.28
					c-2.369-2.943-5.313-4.416-8.832-4.416c-2.816,0-5.225,0.92-7.225,2.76c-2,1.841-3,4.32-3,7.44s0.943,5.624,2.832,7.512
					C318.679,431.099,320.967,432.042,323.655,432.042z"/>
			</g>
		</g>
		<g>
			<circle style="fill:#FFB957;" cx="268" cy="212" r="116"/>
			
				<line style="fill:none;stroke:#4D5152;stroke-width:8;stroke-linejoin:round;stroke-miterlimit:10;" x1="256" y1="224" x2="216" y2="264"/>
			<polygon style="fill:#FFFFFF;" points="244,156 272,188 311.68,168.32 292,208 324,236 280,228 260,272 256,224 208,220 248,200 
							"/>
			<polygon style="fill:none;stroke:#4D5152;stroke-width:8;stroke-linejoin:round;stroke-miterlimit:10;" points="244,156 272,188 
				311.68,168.32 292,208 324,236 280,228 260,272 256,224 208,220 248,200 			"/>
			<polygon style="fill:#67DDE0;" points="132,340 132,332 208,256 224,272 148,348 140,348 			"/>
			<polygon style="fill:none;stroke:#4D5152;stroke-width:8;stroke-linejoin:round;stroke-miterlimit:10;" points="132,340 132,332 
				208,256 224,272 148,348 140,348 			"/>
			
				<line style="fill:none;stroke:#4D5152;stroke-width:8;stroke-linejoin:round;stroke-miterlimit:10;" x1="312" y1="204" x2="320" y2="204"/>
			
				<line style="fill:none;stroke:#4D5152;stroke-width:8;stroke-linejoin:round;stroke-miterlimit:10;" x1="224" y1="188" x2="232" y2="188"/>
			
				<line style="fill:none;stroke:#4D5152;stroke-width:8;stroke-linejoin:round;stroke-miterlimit:10;" x1="272" y1="164" x2="280" y2="164"/>
			
				<line style="fill:none;stroke:#4D5152;stroke-width:8;stroke-linejoin:round;stroke-miterlimit:10;" x1="288" y1="248" x2="296" y2="248"/>
		</g>
	</g>
</g>
<g id="Layer_1">
</g>
</svg>
