<?xml version="1.0" encoding="iso-8859-1"?>
<!-- Generator: Adobe Illustrator 16.0.0, SVG Export Plug-In . SVG Version: 6.00 Build 0)  -->
<!DOCTYPE svg PUBLIC "-//W3C//DTD SVG 1.1//EN" "http://www.w3.org/Graphics/SVG/1.1/DTD/svg11.dtd">
<svg version="1.1" xmlns="http://www.w3.org/2000/svg" xmlns:xlink="http://www.w3.org/1999/xlink" x="0px" y="0px" width="512px"
	 height="512px" viewBox="0 0 512 512" style="enable-background:new 0 0 512 512;" xml:space="preserve">
<g id="Layer_240">
	<g>
		<rect style="fill:#C9FEFF;" width="512" height="512"/>
		<g>
			<g>
				<path style="fill:#4D5152;" d="M160.217,431.368c-3.392,3.312-7.567,4.968-12.527,4.968c-4.961,0-9.137-1.656-12.528-4.968
					c-3.393-3.312-5.088-7.433-5.088-12.36s1.695-9.048,5.088-12.359c3.392-3.313,7.567-4.969,12.528-4.969
					c4.96,0,9.136,1.656,12.527,4.969c3.392,3.312,5.089,7.432,5.089,12.359S163.608,428.057,160.217,431.368z M157.673,419.032
					c0-2.992-0.96-5.544-2.88-7.656s-4.28-3.168-7.08-3.168s-5.159,1.056-7.08,3.168c-1.92,2.112-2.88,4.664-2.88,7.656
					s0.96,5.536,2.88,7.632c1.921,2.096,4.28,3.145,7.08,3.145s5.16-1.049,7.08-3.145S157.673,422.024,157.673,419.032z"/>
				<path style="fill:#4D5152;" d="M182.776,423.809l8.544-21.36h8.112L185.944,436h-6.336l-13.487-33.552h8.111L182.776,423.809z"
					/>
				<path style="fill:#4D5152;" d="M227.129,402.448v6.672h-16.704v6.912h15.023v6.384h-15.023v6.96h17.231V436h-24.72v-33.552
					H227.129z"/>
				<path style="fill:#4D5152;" d="M261.063,413.584c0,5.376-2.128,8.849-6.384,10.416l8.496,12h-9.216l-7.44-10.704h-5.184V436
					h-7.488v-33.552h12.72c5.216,0,8.936,0.88,11.16,2.64C259.951,406.848,261.063,409.68,261.063,413.584z M252.04,417.568
					c0.928-0.832,1.392-2.152,1.392-3.961c0-1.807-0.479-3.047-1.439-3.719c-0.961-0.673-2.641-1.009-5.04-1.009h-5.616v9.937h5.472
					C249.367,418.816,251.111,418.4,252.04,417.568z"/>
				<path style="fill:#4D5152;" d="M281.8,408.928V436h-7.488v-27.072h-9.504v-6.479h26.496v6.479H281.8z"/>
				<path style="fill:#4D5152;" d="M296.295,402.448h7.488V436h-7.488V402.448z"/>
				<path style="fill:#4D5152;" d="M341.606,414.88l-9.072,18.336h-4.464l-9.023-18.336V436h-7.488v-33.552h10.128l8.641,18.432
					l8.688-18.432h10.08V436h-7.488V414.88z"/>
				<path style="fill:#4D5152;" d="M381.063,402.448v6.672h-16.704v6.912h15.023v6.384h-15.023v6.96h17.231V436h-24.72v-33.552
					H381.063z"/>
			</g>
		</g>
		<g>
			<path style="fill:#FFFFFF;" d="M296,304c-6.625,0-12,5.373-12,12v4h24v-4C308,309.373,302.625,304,296,304z"/>
			
				<rect x="201.515" y="121.431" transform="matrix(0.7071 0.7071 -0.7071 0.7071 187.3726 -96.3574)" style="fill:#ACF0F2;" width="16.971" height="113.137"/>
			<polygon style="fill:#ACF0F2;" points="164,244 176,232 264,320 240,320 			"/>
			<circle style="fill:#FFFFFF;" cx="260" cy="128" r="16"/>
			<circle style="fill:#FFB957;" cx="308" cy="176" r="20"/>
			<circle style="fill:none;stroke:#4D5152;stroke-width:8;stroke-miterlimit:10;" cx="308" cy="176" r="20"/>
			<line style="fill:none;stroke:#4D5152;stroke-width:8;stroke-miterlimit:10;" x1="240" y1="320" x2="164" y2="244"/>
			<line style="fill:none;stroke:#4D5152;stroke-width:8;stroke-miterlimit:10;" x1="264" y1="320" x2="176" y2="232"/>
			<line style="fill:none;stroke:#4D5152;stroke-width:8;stroke-miterlimit:10;" x1="176" y1="224" x2="256" y2="144"/>
			<line style="fill:none;stroke:#4D5152;stroke-width:8;stroke-miterlimit:10;" x1="164" y1="212" x2="244" y2="132"/>
			<circle style="fill:#FFFFFF;" cx="160" cy="228" r="16"/>
			<circle style="fill:none;stroke:#4D5152;stroke-width:8;stroke-miterlimit:10;" cx="160" cy="228" r="16"/>
			<rect x="192" y="320" style="fill:#FFFFFF;" width="144" height="24"/>
			<rect x="192" y="320" style="fill:none;stroke:#4D5152;stroke-width:8;stroke-miterlimit:10;" width="144" height="24"/>
			<polyline style="fill:#FFFFFF;" points="276,128 324,128 336,140 272,204 260,192 260,144 			"/>
			<polyline style="fill:none;stroke:#4D5152;stroke-width:8;stroke-miterlimit:10;" points="276,128 324,128 336,140 272,204 
				260,192 260,144 			"/>
			<circle style="fill:none;stroke:#4D5152;stroke-width:8;stroke-miterlimit:10;" cx="260" cy="128" r="16"/>
			<path style="fill:none;stroke:#4D5152;stroke-width:8;stroke-miterlimit:10;" d="M284,320v-4c0-6.627,5.375-12,12-12
				s12,5.373,12,12v4"/>
			<line style="fill:none;stroke:#4D5152;stroke-width:8;stroke-miterlimit:10;" x1="156" y1="228" x2="164" y2="228"/>
			<line style="fill:none;stroke:#4D5152;stroke-width:8;stroke-miterlimit:10;" x1="256" y1="128" x2="264" y2="128"/>
			<line style="fill:none;stroke:#4D5152;stroke-width:8;stroke-miterlimit:10;" x1="304" y1="208" x2="304" y2="240"/>
			<line style="fill:none;stroke:#4D5152;stroke-width:8;stroke-miterlimit:10;" x1="340" y1="172" x2="372" y2="172"/>
			<line style="fill:none;stroke:#4D5152;stroke-width:8;stroke-miterlimit:10;" x1="332" y1="200" x2="356" y2="224"/>
		</g>
	</g>
</g>
<g id="Layer_1">
</g>
</svg>
