<?xml version="1.0" encoding="iso-8859-1"?>
<!-- Generator: Adobe Illustrator 16.0.0, SVG Export Plug-In . SVG Version: 6.00 Build 0)  -->
<!DOCTYPE svg PUBLIC "-//W3C//DTD SVG 1.1//EN" "http://www.w3.org/Graphics/SVG/1.1/DTD/svg11.dtd">
<svg version="1.1" xmlns="http://www.w3.org/2000/svg" xmlns:xlink="http://www.w3.org/1999/xlink" x="0px" y="0px" width="512px"
	 height="512px" viewBox="0 0 512 512" style="enable-background:new 0 0 512 512;" xml:space="preserve">
<g id="Layer_357">
	<g>
		<rect style="fill:#FFFFFF;" width="512" height="512"/>
		<g>
			<g>
				<path style="fill:#4D5152;" d="M77.563,432.043c3.679,0,6.688-1.457,9.024-4.369l4.8,4.943
					c-3.809,4.289-8.296,6.434-13.464,6.434c-5.168,0-9.424-1.633-12.768-4.896c-3.344-3.264-5.016-7.385-5.016-12.359
					c0-4.977,1.704-9.129,5.112-12.457c3.408-3.328,7.576-4.992,12.504-4.992c5.503,0,10.111,2.096,13.824,6.289l-4.656,5.279
					c-2.369-2.943-5.312-4.416-8.832-4.416c-2.816,0-5.225,0.92-7.224,2.76c-2,1.84-3,4.32-3,7.439c0,3.121,0.944,5.625,2.832,7.514
					C72.586,431.098,74.875,432.043,77.563,432.043z"/>
				<path style="fill:#4D5152;" d="M96.811,438.666v-33.553h7.488v26.881h14.304v6.672H96.811z"/>
				<path style="fill:#4D5152;" d="M123.594,405.113h7.488v33.553h-7.488V405.113z"/>
				<path style="fill:#4D5152;" d="M163.05,405.113v6.672h-16.704v6.912h15.024v6.385h-15.024v6.961h17.232v6.623h-24.72v-33.553
					H163.05z"/>
				<path style="fill:#4D5152;" d="M193.242,405.113h7.488v33.553h-7.488l-15.984-21.023v21.023h-7.488v-33.553h7.008l16.464,21.602
					V405.113z"/>
				<path style="fill:#4D5152;" d="M222.713,411.594v27.072h-7.488v-27.072h-9.504v-6.48h26.496v6.48H222.713z"/>
				<path style="fill:#4D5152;" d="M257.248,411.811c-0.72,0.592-1.08,1.375-1.08,2.352s0.439,1.752,1.32,2.328
					c0.879,0.576,2.911,1.256,6.096,2.039c3.184,0.785,5.656,1.961,7.416,3.529s2.641,3.855,2.641,6.863s-1.129,5.447-3.385,7.32
					c-2.256,1.871-5.225,2.809-8.904,2.809c-5.312,0-10.096-1.969-14.352-5.904l4.464-5.473c3.616,3.168,6.96,4.752,10.032,4.752
					c1.375,0,2.455-0.295,3.24-0.889c0.783-0.592,1.176-1.391,1.176-2.398s-0.416-1.809-1.248-2.4s-2.48-1.191-4.943-1.801
					c-3.905-0.928-6.761-2.135-8.569-3.623c-1.808-1.488-2.712-3.824-2.712-7.008s1.144-5.641,3.432-7.369
					c2.288-1.727,5.144-2.592,8.567-2.592c2.24,0,4.48,0.385,6.721,1.152c2.239,0.768,4.191,1.855,5.855,3.264l-3.791,5.473
					c-2.913-2.209-5.921-3.313-9.024-3.313C258.952,410.922,257.968,411.219,257.248,411.811z"/>
				<path style="fill:#4D5152;" d="M303.734,405.113v6.672h-16.703v6.912h15.023v6.385h-15.023v6.961h17.232v6.623h-24.721v-33.553
					H303.734z"/>
				<path style="fill:#4D5152;" d="M337.671,416.25c0,5.377-2.129,8.848-6.384,10.416l8.496,12h-9.217l-7.439-10.703h-5.184v10.703
					h-7.488v-33.553h12.72c5.216,0,8.936,0.881,11.159,2.641C336.559,409.514,337.671,412.346,337.671,416.25z M328.646,420.234
					c0.928-0.832,1.393-2.152,1.393-3.961c0-1.807-0.48-3.047-1.44-3.719s-2.64-1.008-5.04-1.008h-5.615v9.936h5.471
					C325.975,421.482,327.719,421.066,328.646,420.234z"/>
				<path style="fill:#4D5152;" d="M356.631,426.475l8.545-21.361h8.111l-13.488,33.553h-6.336l-13.488-33.553h8.112
					L356.631,426.475z"/>
				<path style="fill:#4D5152;" d="M376.791,405.113h7.488v33.553h-7.488V405.113z"/>
				<path style="fill:#4D5152;" d="M407.462,432.043c3.679,0,6.688-1.457,9.024-4.369l4.799,4.943
					c-3.809,4.289-8.296,6.434-13.463,6.434c-5.169,0-9.425-1.633-12.769-4.896c-3.345-3.264-5.017-7.385-5.017-12.359
					c0-4.977,1.705-9.129,5.113-12.457c3.407-3.328,7.575-4.992,12.504-4.992c5.503,0,10.111,2.096,13.823,6.289l-4.655,5.279
					c-2.369-2.943-5.313-4.416-8.832-4.416c-2.816,0-5.225,0.92-7.225,2.76s-3,4.32-3,7.439c0,3.121,0.943,5.625,2.832,7.514
					C402.485,431.098,404.773,432.043,407.462,432.043z"/>
				<path style="fill:#4D5152;" d="M450.9,405.113v6.672h-16.703v6.912h15.023v6.385h-15.023v6.961h17.232v6.623h-24.721v-33.553
					H450.9z"/>
			</g>
		</g>
		<g>
			<circle style="fill:#FFFFFF;" cx="256" cy="236" r="116"/>
			<path style="fill:none;stroke:#4D5152;stroke-width:8;stroke-linejoin:round;stroke-miterlimit:10;" d="M339.992,316
				c-21.129,22.18-50.949,36-83.992,36c-33.047,0-62.867-13.82-83.996-36"/>
			<path style="fill:none;stroke:#4D5152;stroke-width:8;stroke-linejoin:round;stroke-miterlimit:10;" d="M159.242,300
				C147.078,281.656,140,259.656,140,236c0-64.063,51.938-116,116-116s116,51.938,116,116c0,23.656-7.082,45.656-19.242,64"/>
			<path style="fill:#F28C13;" d="M344,236c0,48.602-39.402,88-88,88c-48.602,0-88-39.398-88-88s39.398-88,88-88
				C304.598,148,344,187.398,344,236z"/>
			<g>
				<path style="fill:#67DDE0;" d="M288,292l40,12l12,12c-21.125,22.18-50.953,36-84,36c-33.016,0-62.758-13.977-84-36l12-12l40-12"
					/>
				<polygon style="fill:#FFFFFF;" points="272,308 256,300 240,308 224,292 232,280 236,280 236,264 256,268 276,264 276,280 
					280,280 288,292 				"/>
				<path style="fill:none;stroke:#4D5152;stroke-width:8;stroke-miterlimit:10;" d="M284,292"/>
				<polygon style="fill:none;stroke:#4D5152;stroke-width:8;stroke-miterlimit:10;" points="272,308 256,300 240,308 224,292 
					232,280 256,284 280,280 288,292 				"/>
				<line style="fill:none;stroke:#4D5152;stroke-width:8;stroke-miterlimit:10;" x1="276" y1="264" x2="276" y2="280"/>
				<line style="fill:none;stroke:#4D5152;stroke-width:8;stroke-miterlimit:10;" x1="236" y1="280" x2="236" y2="264"/>
				<line style="fill:none;stroke:#4D5152;stroke-width:8;stroke-miterlimit:10;" x1="252" y1="320" x2="260" y2="320"/>
				<line style="fill:none;stroke:#4D5152;stroke-width:8;stroke-miterlimit:10;" x1="252" y1="336" x2="260" y2="336"/>
				<g>
					<path style="fill:#FFFFFF;" d="M292,212v16c-4,28-16,36-16,36c-8,4-20,4-20,4s-12,0-20-4c0,0-12-8-16-36v-16l16-8l40,16
						L292,212z"/>
					<path style="fill:#FFB957;" d="M220,212c0-24.301,11.699-36,36-36s36,11.699,36,36l-16,8l-20-8l-20-8L220,212z"/>
					<path style="fill:none;stroke:#4D5152;stroke-width:8;stroke-miterlimit:10;" d="M292,212v16c-4,28-16,36-16,36c-8,4-20,4-20,4
						s-12,0-20-4c0,0-12-8-16-36v-16"/>
					<path style="fill:none;stroke:#4D5152;stroke-width:8;stroke-miterlimit:10;" d="M220,212c0-24.301,11.699-36,36-36
						s36,11.699,36,36"/>
					<polyline style="fill:none;stroke:#4D5152;stroke-width:8;stroke-miterlimit:10;" points="220,212 236,204 256,212 276,220 
						292,212 					"/>
				</g>
				<path style="fill:none;stroke:#4D5152;stroke-width:8;stroke-linejoin:round;stroke-miterlimit:10;" d="M288,292l40,12l12,12
					c-21.125,22.18-50.953,36-84,36c-33.016,0-62.758-13.977-84-36l12-12l40-12"/>
			</g>
			<polyline style="fill:none;stroke:#4D5152;stroke-width:8;stroke-linejoin:round;stroke-miterlimit:10;" points="140,296 
				160,300 164,280 			"/>
			<polyline style="fill:none;stroke:#4D5152;stroke-width:8;stroke-linejoin:round;stroke-miterlimit:10;" points="372,296 
				352,300 348,280 			"/>
			<circle style="fill:#FFFFFF;" cx="256" cy="120" r="16"/>
			
				<circle style="fill:none;stroke:#4D5152;stroke-width:8;stroke-linejoin:round;stroke-miterlimit:10;" cx="256" cy="120" r="16"/>
		</g>
	</g>
</g>
<g id="Layer_1">
</g>
</svg>
