<?xml version="1.0" encoding="iso-8859-1"?>
<!-- Generator: Adobe Illustrator 16.0.0, SVG Export Plug-In . SVG Version: 6.00 Build 0)  -->
<!DOCTYPE svg PUBLIC "-//W3C//DTD SVG 1.1//EN" "http://www.w3.org/Graphics/SVG/1.1/DTD/svg11.dtd">
<svg version="1.1" xmlns="http://www.w3.org/2000/svg" xmlns:xlink="http://www.w3.org/1999/xlink" x="0px" y="0px" width="512px"
	 height="512px" viewBox="0 0 512 512" style="enable-background:new 0 0 512 512;" xml:space="preserve">
<g id="Layer_23">
	<g>
		<rect style="fill:#FFB957;" width="512" height="512"/>
		<g>
			<g>
				<path style="fill:#4D5152;" d="M100.442,436l-3.12-7.248H83.258L80.138,436H72.17l14.496-33.553h7.248L108.41,436H100.442z
					 M90.314,412.432l-4.225,9.744h8.4L90.314,412.432z"/>
				<path style="fill:#4D5152;" d="M134.93,405.447c2.352,2.002,3.527,5.072,3.527,9.217s-1.208,7.176-3.624,9.096
					s-6.104,2.881-11.063,2.881h-4.464V436h-7.488v-33.553h11.856C128.825,402.447,132.577,403.449,134.93,405.447z
					 M129.434,418.648c0.896-1.008,1.344-2.48,1.344-4.416s-0.584-3.313-1.752-4.129s-2.984-1.223-5.448-1.223h-4.271v11.279h5.04
					C126.842,420.16,128.537,419.656,129.434,418.648z"/>
				<path style="fill:#4D5152;" d="M143.833,402.447h7.488V436h-7.488V402.447z"/>
				<path style="fill:#4D5152;" d="M171.288,402.447h7.488V436h-7.488V402.447z"/>
				<path style="fill:#4D5152;" d="M210.023,402.447h7.488V436h-7.488l-15.983-21.023V436h-7.488v-33.553h7.008l16.464,21.602
					V402.447z"/>
				<path style="fill:#4D5152;" d="M239.495,408.928V436h-7.488v-27.072h-9.504v-6.48h26.496v6.48H239.495z"/>
				<path style="fill:#4D5152;" d="M278.183,402.447v6.672h-16.704v6.912h15.023v6.385h-15.023v6.961h17.231V436h-24.72v-33.553
					H278.183z"/>
				<path style="fill:#4D5152;" d="M312.118,413.584c0,5.377-2.128,8.848-6.384,10.416l8.496,12h-9.216l-7.44-10.703h-5.184V436
					h-7.488v-33.553h12.72c5.216,0,8.936,0.881,11.16,2.641C311.006,406.848,312.118,409.68,312.118,413.584z M303.095,417.568
					c0.928-0.832,1.392-2.152,1.392-3.961c0-1.807-0.479-3.047-1.439-3.719c-0.961-0.672-2.641-1.008-5.04-1.008h-5.616v9.936h5.472
					C300.422,418.816,302.166,418.4,303.095,417.568z"/>
				<path style="fill:#4D5152;" d="M342.357,402.447v6.576h-15.552v7.248h14.784v6.576h-14.784V436h-7.488v-33.553H342.357z"/>
				<path style="fill:#4D5152;" d="M370.294,436l-3.12-7.248h-14.064l-3.12,7.248h-7.968l14.496-33.553h7.248L378.262,436H370.294z
					 M360.166,412.432l-4.225,9.744h8.4L360.166,412.432z"/>
				<path style="fill:#4D5152;" d="M397.078,429.377c3.68,0,6.688-1.457,9.023-4.369l4.801,4.943
					c-3.809,4.289-8.297,6.434-13.464,6.434c-5.169,0-9.425-1.633-12.769-4.896s-5.016-7.385-5.016-12.359
					c0-4.977,1.704-9.129,5.111-12.457c3.408-3.328,7.576-4.992,12.504-4.992c5.504,0,10.112,2.096,13.824,6.289l-4.655,5.279
					c-2.369-2.943-5.313-4.416-8.832-4.416c-2.816,0-5.225,0.92-7.225,2.76s-3,4.32-3,7.439c0,3.121,0.943,5.625,2.832,7.514
					C392.102,428.432,394.39,429.377,397.078,429.377z"/>
				<path style="fill:#4D5152;" d="M440.518,402.447v6.672h-16.704v6.912h15.023v6.385h-15.023v6.961h17.231V436h-24.72v-33.553
					H440.518z"/>
			</g>
		</g>
		<g>
			<polygon style="fill:#FFFFFF;" points="288,332 224,332 232,292 276,292 			"/>
			<path style="fill:#FFFFFF;" d="M372,136c0-6.629-5.375-12-12-12H152c-6.625,0-12,5.371-12,12v144c0,6.629,5.375,12,12,12h208
				c6.625,0,12-5.371,12-12V136z"/>
			<path style="fill:none;stroke:#4D5152;stroke-width:8;stroke-miterlimit:10;" d="M372,136c0-6.629-5.375-12-12-12H152
				c-6.625,0-12,5.371-12,12v144c0,6.629,5.375,12,12,12h208c6.625,0,12-5.371,12-12V136z"/>
			<line style="fill:none;stroke:#4D5152;stroke-width:8;stroke-miterlimit:10;" x1="276" y1="292" x2="288" y2="332"/>
			<line style="fill:none;stroke:#4D5152;stroke-width:8;stroke-miterlimit:10;" x1="224" y1="332" x2="232" y2="292"/>
			<line style="fill:none;stroke:#4D5152;stroke-width:8;stroke-miterlimit:10;" x1="204" y1="332" x2="308" y2="332"/>
			<line style="fill:none;stroke:#4D5152;stroke-width:8;stroke-miterlimit:10;" x1="140" y1="260" x2="372" y2="260"/>
			<line style="fill:none;stroke:#4D5152;stroke-width:8;stroke-miterlimit:10;" x1="252" y1="276" x2="260" y2="276"/>
			<rect x="152" y="136" style="fill:#67DDE0;" width="208" height="112"/>
			<rect x="160" y="144" style="fill:#ACF0F2;" width="192" height="96"/>
			<g>
				<g>
					<g>
						<path style="fill:none;stroke:#4D5152;stroke-width:8;stroke-miterlimit:10;" d="M204,224v-48c0-6.625,5.375-12,12-12h4
							c6.625,0,12,5.375,12,12v48"/>
					</g>
					<line style="fill:none;stroke:#4D5152;stroke-width:8;stroke-miterlimit:10;" x1="204" y1="200" x2="232" y2="200"/>
				</g>
				<g>
					<path style="fill:none;stroke:#4D5152;stroke-width:8;stroke-miterlimit:10;" d="M248,188v-12c0-6.625,5.375-12,12-12h4
						c6.625,0,12,5.375,12,12v12c0,6.625-5.375,12-12,12h-16"/>
					<line style="fill:none;stroke:#4D5152;stroke-width:8;stroke-miterlimit:10;" x1="248" y1="188" x2="248" y2="224"/>
				</g>
				<line style="fill:none;stroke:#4D5152;stroke-width:8;stroke-miterlimit:10;" x1="300" y1="164" x2="300" y2="220"/>
				<line style="fill:none;stroke:#4D5152;stroke-width:8;stroke-miterlimit:10;" x1="288" y1="164" x2="312" y2="164"/>
				<line style="fill:none;stroke:#4D5152;stroke-width:8;stroke-miterlimit:10;" x1="288" y1="220" x2="312" y2="220"/>
			</g>
		</g>
	</g>
</g>
<g id="Layer_1">
</g>
</svg>
