<?xml version="1.0" encoding="iso-8859-1"?>
<!-- Generator: Adobe Illustrator 16.0.0, SVG Export Plug-In . SVG Version: 6.00 Build 0)  -->
<!DOCTYPE svg PUBLIC "-//W3C//DTD SVG 1.1//EN" "http://www.w3.org/Graphics/SVG/1.1/DTD/svg11.dtd">
<svg version="1.1" xmlns="http://www.w3.org/2000/svg" xmlns:xlink="http://www.w3.org/1999/xlink" x="0px" y="0px" width="512px"
	 height="512px" viewBox="0 0 512 512" style="enable-background:new 0 0 512 512;" xml:space="preserve">
<g id="Layer_233">
	<g>
		<rect style="fill:#FFFFFF;" width="512" height="512"/>
		<g>
			<path style="fill:#4D5152;" d="M82.603,429.377c3.68,0,6.688-1.457,9.023-4.369l4.801,4.943
				c-3.809,4.289-8.297,6.434-13.464,6.434c-5.169,0-9.425-1.633-12.769-4.896s-5.016-7.385-5.016-12.359
				c0-4.977,1.704-9.129,5.111-12.457c3.408-3.328,7.576-4.992,12.504-4.992c5.504,0,10.112,2.096,13.824,6.289l-4.655,5.279
				c-2.369-2.943-5.313-4.416-8.832-4.416c-2.816,0-5.225,0.92-7.225,2.76s-3,4.32-3,7.439c0,3.121,0.943,5.625,2.832,7.514
				C77.626,428.432,79.914,429.377,82.603,429.377z"/>
			<path style="fill:#4D5152;" d="M101.85,436v-33.553h7.488v26.881h14.304V436H101.85z"/>
			<path style="fill:#4D5152;" d="M155.945,431.367c-3.392,3.313-7.567,4.969-12.527,4.969c-4.961,0-9.137-1.656-12.528-4.969
				c-3.393-3.311-5.088-7.432-5.088-12.359s1.695-9.047,5.088-12.359c3.392-3.313,7.567-4.969,12.528-4.969
				c4.96,0,9.136,1.656,12.527,4.969s5.089,7.432,5.089,12.359S159.337,428.057,155.945,431.367z M153.401,419.031
				c0-2.99-0.96-5.543-2.88-7.654c-1.92-2.113-4.28-3.17-7.08-3.17s-5.159,1.057-7.08,3.17c-1.92,2.111-2.88,4.664-2.88,7.654
				c0,2.994,0.96,5.537,2.88,7.633c1.921,2.096,4.28,3.145,7.08,3.145s5.16-1.049,7.08-3.145S153.401,422.025,153.401,419.031z"/>
			<path style="fill:#4D5152;" d="M175.769,427.336c1.248,1.553,2.928,2.328,5.04,2.328s3.784-0.775,5.017-2.328
				c1.231-1.551,1.848-3.672,1.848-6.359v-18.529h7.488v18.77c0,4.863-1.345,8.6-4.032,11.207c-2.688,2.609-6.128,3.912-10.32,3.912
				s-7.64-1.313-10.344-3.936c-2.705-2.623-4.056-6.352-4.056-11.184v-18.77h7.487v18.529
				C173.896,423.664,174.521,425.785,175.769,427.336z"/>
			<path style="fill:#4D5152;" d="M228.089,406.84c3.2,2.928,4.8,7,4.8,12.217c0,5.215-1.56,9.344-4.68,12.383
				c-3.12,3.041-7.88,4.561-14.28,4.561h-11.472v-33.553h11.856C220.297,402.447,224.889,403.912,228.089,406.84z M222.593,426.783
				c1.84-1.727,2.761-4.238,2.761-7.535c0-3.295-0.921-5.832-2.761-7.607c-1.84-1.777-4.664-2.664-8.472-2.664h-4.176v20.4h4.752
				C218.121,429.377,220.753,428.512,222.593,426.783z"/>
			<path style="fill:#4D5152;" d="M258.929,409.145c-0.72,0.592-1.079,1.375-1.079,2.352s0.439,1.752,1.319,2.328
				s2.912,1.256,6.096,2.039c3.185,0.785,5.656,1.961,7.416,3.529s2.641,3.855,2.641,6.863s-1.128,5.447-3.384,7.32
				c-2.257,1.871-5.225,2.809-8.904,2.809c-5.313,0-10.097-1.969-14.353-5.904l4.465-5.473c3.615,3.168,6.96,4.752,10.031,4.752
				c1.376,0,2.456-0.295,3.24-0.889c0.784-0.592,1.176-1.391,1.176-2.398s-0.416-1.809-1.248-2.4s-2.479-1.191-4.943-1.801
				c-3.904-0.928-6.761-2.135-8.568-3.623c-1.809-1.488-2.712-3.824-2.712-7.008s1.144-5.641,3.432-7.369
				c2.288-1.727,5.144-2.592,8.568-2.592c2.239,0,4.479,0.385,6.72,1.152s4.192,1.855,5.856,3.264l-3.792,5.473
				c-2.912-2.209-5.921-3.313-9.024-3.313C260.633,408.256,259.649,408.553,258.929,409.145z"/>
			<path style="fill:#4D5152;" d="M305.416,402.447v6.672h-16.704v6.912h15.023v6.385h-15.023v6.961h17.231V436h-24.72v-33.553
				H305.416z"/>
			<path style="fill:#4D5152;" d="M336.04,436l-3.12-7.248h-14.064l-3.12,7.248h-7.968l14.496-33.553h7.248L344.008,436H336.04z
				 M325.912,412.432l-4.225,9.744h8.4L325.912,412.432z"/>
			<path style="fill:#4D5152;" d="M374.631,413.584c0,5.377-2.128,8.848-6.384,10.416l8.496,12h-9.216l-7.44-10.703h-5.184V436
				h-7.488v-33.553h12.72c5.216,0,8.936,0.881,11.16,2.641C373.519,406.848,374.631,409.68,374.631,413.584z M365.607,417.568
				c0.928-0.832,1.392-2.152,1.392-3.961c0-1.807-0.479-3.047-1.439-3.719c-0.961-0.672-2.641-1.008-5.04-1.008h-5.616v9.936h5.472
				C362.935,418.816,364.679,418.4,365.607,417.568z"/>
			<path style="fill:#4D5152;" d="M397.239,429.377c3.68,0,6.688-1.457,9.023-4.369l4.801,4.943
				c-3.809,4.289-8.297,6.434-13.464,6.434c-5.169,0-9.425-1.633-12.769-4.896s-5.016-7.385-5.016-12.359
				c0-4.977,1.704-9.129,5.111-12.457c3.408-3.328,7.576-4.992,12.504-4.992c5.504,0,10.112,2.096,13.824,6.289l-4.655,5.279
				c-2.369-2.943-5.313-4.416-8.832-4.416c-2.816,0-5.225,0.92-7.225,2.76s-3,4.32-3,7.439c0,3.121,0.943,5.625,2.832,7.514
				C392.263,428.432,394.551,429.377,397.239,429.377z"/>
			<path style="fill:#4D5152;" d="M437.318,402.447h7.488V436h-7.488v-13.199h-13.344V436h-7.488v-33.553h7.488v14.018h13.344
				V402.447z"/>
		</g>
		<g>
			<g>
				<path style="fill:#FFFFFF;" d="M332,264c26.508,0,48-21.492,48-48c0-23.789-16-44-40-44c0-20-12-36-36-36h-4
					c-10.91-19.695-31.887-32-56-32c-35.344,0-64,28.656-64,64c-26.508,0-48,21.492-48,48s21.492,48,48,48H332z"/>
			</g>
			<g>
				<path style="fill:none;stroke:#4D5152;stroke-width:8;stroke-miterlimit:10;" d="M300,264h32c26.508,0,48-21.492,48-48
					c0-23.789-16-44-40-44c0-20-12-36-36-36h-4c-10.91-19.695-31.887-32-56-32c-35.344,0-64,28.656-64,64c-26.508,0-48,21.492-48,48
					s21.492,48,48,48h32"/>
			</g>
			<g>
				<path style="fill:#67DDE0;" d="M316,204c0,33.133-26.859,60-60,60s-60-26.867-60-60s26.859-60,60-60S316,170.867,316,204z"/>
				<path style="fill:#FFB957;" d="M272,260v76c0,8.836-7.164,16-16,16s-16-7.164-16-16v-76"/>
				<path style="fill:#FFFFFF;" d="M296,204c0,22.086-17.906,40-40,40s-40-17.914-40-40c0-22.09,17.906-40,40-40S296,181.91,296,204
					z"/>
				<path style="fill:none;stroke:#4D5152;stroke-width:8;stroke-miterlimit:10;" d="M316,204c0,33.133-26.859,60-60,60
					s-60-26.867-60-60s26.859-60,60-60S316,170.867,316,204z"/>
				<path style="fill:none;stroke:#4D5152;stroke-width:8;stroke-miterlimit:10;" d="M296,204c0,22.086-17.906,40-40,40
					s-40-17.914-40-40c0-22.09,17.906-40,40-40S296,181.91,296,204z"/>
				<path style="fill:none;stroke:#4D5152;stroke-width:8;stroke-miterlimit:10;" d="M236,204c0-11.047,8.953-20,20-20"/>
				<path style="fill:none;stroke:#4D5152;stroke-width:8;stroke-miterlimit:10;" d="M272,260v76c0,8.836-7.164,16-16,16
					s-16-7.164-16-16v-76"/>
				<line style="fill:none;stroke:#4D5152;stroke-width:8;stroke-miterlimit:10;" x1="256" y1="292" x2="256" y2="300"/>
				<line style="fill:none;stroke:#4D5152;stroke-width:8;stroke-miterlimit:10;" x1="256" y1="308" x2="256" y2="316"/>
				<line style="fill:none;stroke:#4D5152;stroke-width:8;stroke-miterlimit:10;" x1="256" y1="324" x2="256" y2="332"/>
			</g>
		</g>
	</g>
</g>
<g id="Layer_1">
</g>
</svg>
